<mxfile host="app.diagrams.net" modified="2022-05-20T08:16:24.558Z" agent="5.0 (Windows NT 10.0; Win64; x64) AppleWebKit/537.36 (KHTML, like Gecko) Chrome/99.0.4844.82 Safari/537.36" etag="sjyV1rQBUfNnYwshR4Kr" version="18.0.7" type="github">
  <diagram id="C5RBs43oDa-KdzZeNtuy" name="Page-1">
    <mxGraphModel dx="1384" dy="644" grid="1" gridSize="10" guides="1" tooltips="1" connect="1" arrows="1" fold="1" page="1" pageScale="1" pageWidth="827" pageHeight="1169" math="0" shadow="0">
      <root>
        <mxCell id="WIyWlLk6GJQsqaUBKTNV-0" />
        <mxCell id="WIyWlLk6GJQsqaUBKTNV-1" parent="WIyWlLk6GJQsqaUBKTNV-0" />
        <mxCell id="lfDSqrNuD7VzDhoS98Rk-1" value="" style="edgeStyle=orthogonalEdgeStyle;rounded=0;orthogonalLoop=1;jettySize=auto;html=1;" edge="1" parent="WIyWlLk6GJQsqaUBKTNV-1" source="WIyWlLk6GJQsqaUBKTNV-3" target="lfDSqrNuD7VzDhoS98Rk-0">
          <mxGeometry relative="1" as="geometry" />
        </mxCell>
        <mxCell id="WIyWlLk6GJQsqaUBKTNV-3" value="开始" style="rounded=1;whiteSpace=wrap;html=1;fontSize=12;glass=0;strokeWidth=1;shadow=0;" parent="WIyWlLk6GJQsqaUBKTNV-1" vertex="1">
          <mxGeometry x="160" y="80" width="120" height="40" as="geometry" />
        </mxCell>
        <mxCell id="lfDSqrNuD7VzDhoS98Rk-11" value="是" style="edgeStyle=orthogonalEdgeStyle;rounded=0;orthogonalLoop=1;jettySize=auto;html=1;fontSize=12;" edge="1" parent="WIyWlLk6GJQsqaUBKTNV-1" source="lfDSqrNuD7VzDhoS98Rk-0" target="lfDSqrNuD7VzDhoS98Rk-10">
          <mxGeometry x="-0.4634" relative="1" as="geometry">
            <mxPoint as="offset" />
          </mxGeometry>
        </mxCell>
        <mxCell id="lfDSqrNuD7VzDhoS98Rk-14" value="否" style="edgeStyle=orthogonalEdgeStyle;rounded=0;orthogonalLoop=1;jettySize=auto;html=1;fontSize=12;" edge="1" parent="WIyWlLk6GJQsqaUBKTNV-1" source="lfDSqrNuD7VzDhoS98Rk-0" target="lfDSqrNuD7VzDhoS98Rk-13">
          <mxGeometry relative="1" as="geometry" />
        </mxCell>
        <mxCell id="lfDSqrNuD7VzDhoS98Rk-0" value="&lt;span style=&quot;color: rgb(51, 51, 51); font-family: &amp;quot;Open Sans&amp;quot;, &amp;quot;Clear Sans&amp;quot;, &amp;quot;Helvetica Neue&amp;quot;, Helvetica, Arial, &amp;quot;Segoe UI Emoji&amp;quot;, sans-serif; orphans: 4; text-align: left; background-color: rgb(255, 255, 255);&quot;&gt;&lt;font style=&quot;font-size: 12px;&quot;&gt;调用对象的 [[ToPrimitive]] 方法，&lt;/font&gt;&lt;/span&gt;&lt;font face=&quot;Open Sans, Clear Sans, Helvetica Neue, Helvetica, Arial, Segoe UI Emoji, sans-serif&quot; color=&quot;#333333&quot;&gt;返回值是否是基本数据类型&lt;/font&gt;" style="rhombus;whiteSpace=wrap;html=1;rounded=1;glass=0;strokeWidth=1;shadow=0;spacingTop=0;spacing=20;" vertex="1" parent="WIyWlLk6GJQsqaUBKTNV-1">
          <mxGeometry x="150" y="175" width="140" height="140" as="geometry" />
        </mxCell>
        <mxCell id="lfDSqrNuD7VzDhoS98Rk-21" value="" style="edgeStyle=orthogonalEdgeStyle;rounded=0;orthogonalLoop=1;jettySize=auto;html=1;fontSize=12;" edge="1" parent="WIyWlLk6GJQsqaUBKTNV-1" source="lfDSqrNuD7VzDhoS98Rk-10" target="lfDSqrNuD7VzDhoS98Rk-20">
          <mxGeometry relative="1" as="geometry" />
        </mxCell>
        <mxCell id="lfDSqrNuD7VzDhoS98Rk-10" value="返回结果" style="whiteSpace=wrap;html=1;rounded=1;glass=0;strokeWidth=1;shadow=0;spacingTop=0;spacing=16;" vertex="1" parent="WIyWlLk6GJQsqaUBKTNV-1">
          <mxGeometry x="390" y="435" width="120" height="60" as="geometry" />
        </mxCell>
        <mxCell id="lfDSqrNuD7VzDhoS98Rk-16" value="否" style="edgeStyle=orthogonalEdgeStyle;rounded=0;orthogonalLoop=1;jettySize=auto;html=1;fontSize=12;" edge="1" parent="WIyWlLk6GJQsqaUBKTNV-1" source="lfDSqrNuD7VzDhoS98Rk-13" target="lfDSqrNuD7VzDhoS98Rk-15">
          <mxGeometry relative="1" as="geometry" />
        </mxCell>
        <mxCell id="lfDSqrNuD7VzDhoS98Rk-17" value="是" style="edgeStyle=orthogonalEdgeStyle;rounded=0;orthogonalLoop=1;jettySize=auto;html=1;exitX=1;exitY=0.5;exitDx=0;exitDy=0;fontSize=12;" edge="1" parent="WIyWlLk6GJQsqaUBKTNV-1" source="lfDSqrNuD7VzDhoS98Rk-13" target="lfDSqrNuD7VzDhoS98Rk-10">
          <mxGeometry relative="1" as="geometry" />
        </mxCell>
        <mxCell id="lfDSqrNuD7VzDhoS98Rk-13" value="&lt;span style=&quot;color: rgb(51, 51, 51); font-family: &amp;quot;Open Sans&amp;quot;, &amp;quot;Clear Sans&amp;quot;, &amp;quot;Helvetica Neue&amp;quot;, Helvetica, Arial, &amp;quot;Segoe UI Emoji&amp;quot;, sans-serif; orphans: 4; text-align: left; background-color: rgb(255, 255, 255);&quot;&gt;&lt;font style=&quot;font-size: 12px;&quot;&gt;调用对象的 valueOf 方法，&lt;/font&gt;&lt;/span&gt;&lt;font face=&quot;Open Sans, Clear Sans, Helvetica Neue, Helvetica, Arial, Segoe UI Emoji, sans-serif&quot; color=&quot;#333333&quot;&gt;返回值是否是基本数据类型&lt;/font&gt;" style="rhombus;whiteSpace=wrap;html=1;rounded=1;glass=0;strokeWidth=1;shadow=0;spacingTop=0;spacing=20;" vertex="1" parent="WIyWlLk6GJQsqaUBKTNV-1">
          <mxGeometry x="150" y="395" width="140" height="140" as="geometry" />
        </mxCell>
        <mxCell id="lfDSqrNuD7VzDhoS98Rk-18" style="edgeStyle=orthogonalEdgeStyle;rounded=0;orthogonalLoop=1;jettySize=auto;html=1;exitX=1;exitY=0.5;exitDx=0;exitDy=0;fontSize=12;entryX=0.5;entryY=1;entryDx=0;entryDy=0;" edge="1" parent="WIyWlLk6GJQsqaUBKTNV-1" source="lfDSqrNuD7VzDhoS98Rk-15" target="lfDSqrNuD7VzDhoS98Rk-10">
          <mxGeometry relative="1" as="geometry">
            <mxPoint x="510" y="500" as="targetPoint" />
          </mxGeometry>
        </mxCell>
        <mxCell id="lfDSqrNuD7VzDhoS98Rk-19" value="是" style="edgeLabel;html=1;align=center;verticalAlign=middle;resizable=0;points=[];fontSize=12;" vertex="1" connectable="0" parent="lfDSqrNuD7VzDhoS98Rk-18">
          <mxGeometry x="-0.6257" y="1" relative="1" as="geometry">
            <mxPoint as="offset" />
          </mxGeometry>
        </mxCell>
        <mxCell id="lfDSqrNuD7VzDhoS98Rk-23" value="否" style="edgeStyle=orthogonalEdgeStyle;rounded=0;orthogonalLoop=1;jettySize=auto;html=1;fontSize=12;" edge="1" parent="WIyWlLk6GJQsqaUBKTNV-1" source="lfDSqrNuD7VzDhoS98Rk-15" target="lfDSqrNuD7VzDhoS98Rk-22">
          <mxGeometry relative="1" as="geometry" />
        </mxCell>
        <mxCell id="lfDSqrNuD7VzDhoS98Rk-15" value="&lt;span style=&quot;color: rgb(51, 51, 51); font-family: &amp;quot;Open Sans&amp;quot;, &amp;quot;Clear Sans&amp;quot;, &amp;quot;Helvetica Neue&amp;quot;, Helvetica, Arial, &amp;quot;Segoe UI Emoji&amp;quot;, sans-serif; orphans: 4; text-align: left; background-color: rgb(255, 255, 255);&quot;&gt;&lt;font style=&quot;font-size: 12px;&quot;&gt;调用对象的 toString 方法，&lt;/font&gt;&lt;/span&gt;&lt;font face=&quot;Open Sans, Clear Sans, Helvetica Neue, Helvetica, Arial, Segoe UI Emoji, sans-serif&quot; color=&quot;#333333&quot;&gt;返回值是否是基本数据类型&lt;/font&gt;" style="rhombus;whiteSpace=wrap;html=1;rounded=1;glass=0;strokeWidth=1;shadow=0;spacingTop=0;spacing=20;" vertex="1" parent="WIyWlLk6GJQsqaUBKTNV-1">
          <mxGeometry x="150" y="615" width="140" height="140" as="geometry" />
        </mxCell>
        <mxCell id="lfDSqrNuD7VzDhoS98Rk-20" value="结束" style="whiteSpace=wrap;html=1;rounded=1;glass=0;strokeWidth=1;shadow=0;spacingTop=0;spacing=16;" vertex="1" parent="WIyWlLk6GJQsqaUBKTNV-1">
          <mxGeometry x="650" y="435" width="120" height="60" as="geometry" />
        </mxCell>
        <mxCell id="lfDSqrNuD7VzDhoS98Rk-24" style="edgeStyle=orthogonalEdgeStyle;rounded=0;orthogonalLoop=1;jettySize=auto;html=1;exitX=1;exitY=0.5;exitDx=0;exitDy=0;entryX=0.5;entryY=1;entryDx=0;entryDy=0;fontSize=12;" edge="1" parent="WIyWlLk6GJQsqaUBKTNV-1" source="lfDSqrNuD7VzDhoS98Rk-22" target="lfDSqrNuD7VzDhoS98Rk-20">
          <mxGeometry relative="1" as="geometry" />
        </mxCell>
        <mxCell id="lfDSqrNuD7VzDhoS98Rk-22" value="报错" style="whiteSpace=wrap;html=1;rounded=1;glass=0;strokeWidth=1;shadow=0;spacingTop=0;spacing=20;" vertex="1" parent="WIyWlLk6GJQsqaUBKTNV-1">
          <mxGeometry x="160" y="840" width="120" height="60" as="geometry" />
        </mxCell>
      </root>
    </mxGraphModel>
  </diagram>
</mxfile>
